<svg height="512pt" viewBox="0 -8 512.00046 512" width="512pt" xmlns="http://www.w3.org/2000/svg"><path d="m465.820312 400.597656c-.527343 9.253906-8.488281 16.339844-17.753906 16.339844h-189.085937c-14.1875 0-39.742188-15.9375-39.742188-44.253906 0-33.878906 35.710938-53.679688 63.789063-39.71875 3.359375 1.675781 7.414062-.074219 8.363281-3.703125 6.785156-25.925781 30.363281-45.058594 58.421875-45.058594 5.148438 0 10.152344.640625 14.929688 1.863281 19.710937 5.015625 35.554687 19.730469 42.144531 38.757813.929687 2.679687 3.628906 4.261719 6.441406 3.890625 27.238281-3.609375 48.90625 23.027344 40.640625 48.71875-.847656 2.644531.28125 5.5625 2.722656 6.875 5.726563 3.070312 9.523438 9.257812 9.128906 16.289062zm0 0" fill="#97bffd"/><path d="m370.628906 310.480469c0 8.636719-1.996094 16.300781-5.265625 22.917969-9.429687 19.183593-29.410156 29.636718-41.945312 29.636718h-41.363281c3.152343 4.136719 5.757812 8.71875 7.660156 13.652344 1.316406 3.390625 4.675781 5.585938 8.296875 5.285156 20.773437-1.769531 37.632812 15.460938 37.496093 34.964844h-76.527343c-14.1875 0-39.742188-15.9375-39.742188-44.253906 0-33.878906 35.710938-53.679688 63.789063-39.71875 3.359375 1.675781 7.414062-.074219 8.363281-3.703125 6.785156-25.925781 30.363281-45.058594 58.421875-45.058594 5.148438 0 10.152344.640625 14.929688 1.863281 3.726562 7.101563 5.886718 15.335938 5.886718 24.414063zm0 0" fill="#5596fb"/><path d="m511.984375 226.996094c-.433594 11.589844-10.308594 20.597656-21.914063 20.597656h-269.777343c-16.855469 0-47.207031-18.925781-47.207031-52.554688 0-18.511718 8.976562-33.484374 21.914062-42.648437 16.421875-11.613281 39.214844-13.878906 58.160156-2.140625 1.789063 1.105469 4.15625.09375 4.550782-1.976562 6.265624-33.214844 35.429687-58.34375 70.476562-58.34375 9.214844 0 18.023438 1.734374 26.113281 4.902343 10.496094 4.105469 19.792969 10.617188 27.207031 18.851563 7.042969 7.828125 12.390626 17.207031 15.460938 27.570312.445312 1.5 1.964844 2.386719 3.503906 2.078125 33.859375-6.867187 61.648438 25.945313 51.378906 57.5-.640624 1.953125.804688 3.960938 2.863282 3.960938h35.886718c12.085938 0 21.828126 10.03125 21.382813 22.203125zm0 0" fill="#0956c6"/><path d="m360.546875 247.59375h-140.253906c-16.855469 0-47.207031-18.925781-47.207031-52.554688 0-18.511718 8.976562-33.484374 21.914062-42.648437 3.648438-.566406 7.382812-.867187 11.1875-.867187 9.082031 0 17.769531 1.683593 25.761719 4.765624 21.210937 8.171876 37.570312 26.132813 43.527343 48.347657 1.179688 4.414062 6.089844 6.753906 10.1875 4.734375 30.753907-15.160156 69.121094 3.671875 74.882813 38.222656zm0 0" fill="#0a4499"/><path d="m367.359375 478.757812c.457031 9.554688-7.15625 17.433594-16.605469 17.433594h-210.109375c-13.101562 0-36.691406-14.703125-36.691406-40.847656 0-23.390625 18.429687-39.515625 38.574219-40.765625 5.914062-.371094 11.972656.539063 17.765625 2.925781 4.476562 1.851563 9.648437-.589844 11.128906-5.210937 7.226563-22.421875 28.25-38.644531 53.082031-38.644531 23.703125 0 43.941406 14.785156 52.007813 35.636718 1.3125 3.390625 4.671875 5.582032 8.292969 5.28125 22.203124-1.890625 39.917968 17.914063 37.230468 39-.632812 4.964844 3.183594 9.359375 8.179688 9.359375h20.0625c6.949218 0 13.152344 4.144531 15.769531 10.183594.765625 1.75 1.21875 3.640625 1.3125 5.648437zm0 0" fill="#0a3575"/><path d="m366.046875 473.109375h-188.183594c-13.101562 0-36.691406-14.703125-36.691406-40.847656 0-5.449219.453125-11.5 1.355469-17.683594 5.914062-.371094 11.972656.539063 17.765625 2.925781 4.476562 1.851563 9.648437-.589844 11.128906-5.210937 7.226563-22.421875 28.25-38.644531 53.082031-38.644531 23.703125 0 43.941406 14.785156 52.007813 35.636718 1.3125 3.390625 4.671875 5.582032 8.292969 5.28125 22.203124-1.890625 39.917968 17.914063 37.230468 39-.632812 4.964844 3.183594 9.359375 8.179688 9.359375h20.0625c6.949218 0 13.152344 4.144531 15.769531 10.183594zm0 0" fill="#0a4499"/><path d="m232.679688 99.492188c-.191407 8.160156-7.179688 14.53125-15.339844 14.53125h-162.375c-12.191406 0-34.136719-13.679688-34.136719-38.003907 0-15.417969 8.613281-27.445312 20.289063-33.566406 10.914062-5.710937 24.511718-6.269531 36.277343.375 1.976563 1.117187 4.457031.058594 4.945313-2.160156 5.121094-23.261719 25.851562-40.667969 50.660156-40.667969 23.167969 0 42.796875 15.191406 49.449219 36.164062.496093 1.574219 2.0625 2.585938 3.683593 2.300782 25.152344-4.4375 45.339844 21.277344 35.195313 44.671875-.195313.464843-.402344.921875-.628906 1.386719 6.945312 1.375 12.152343 7.582031 11.980469 14.96875zm0 0" fill="#0a66ea"/><path d="m221.328125 83.132812h-141.679687c-13.390626 0-37.207032-14.609374-38.53125-40.683593 10.914062-5.707031 24.511718-6.265625 36.277343.378906 1.976563 1.117187 4.457031.058594 4.945313-2.160156 5.121094-23.261719 25.851562-40.667969 50.660156-40.667969 23.167969 0 42.796875 15.191406 49.449219 36.164062.496093 1.570313 2.0625 2.585938 3.683593 2.296876 25.152344-4.4375 45.34375 21.28125 35.195313 44.671874zm0 0" fill="#2476ed"/><path d="m338.910156 288.5c0 8.632812-1.996094 16.296875-5.261718 22.914062-9.433594 19.183594-29.414063 29.640626-41.945313 29.640626h-269.78125c-11.597656 0-21.480469-9.011719-21.90625-20.601563-.449219-12.179687 9.292969-22.203125 21.382813-22.203125h35.878906c2.058594 0 3.507812-2.007812 2.871094-3.964844-10.269532-31.550781 17.515624-64.367187 51.378906-57.496094 1.539062.3125 3.0625-.585937 3.507812-2.09375 8.789063-29.660156 36.261719-51.308593 68.777344-51.308593 9.078125 0 17.765625 1.6875 25.757812 4.769531 24.261719 9.339844 42.171876 31.488281 45.429688 58.160156 34.117188-25.398437 83.910156-1.429687 83.910156 42.183594zm0 0" fill="#0a66ea"/><path d="m338.910156 288.5c0 8.632812-1.996094 16.296875-5.261718 22.914062h-224.714844c-11.597656 0-21.480469-9.011718-21.90625-20.601562-.445313-12.175781 9.292968-22.199219 21.382812-22.199219h35.882813c2.058593 0 3.507812-2.011719 2.871093-3.964843-10.265624-31.550782 17.511719-64.367188 51.375-57.488282 1.535157.3125 3.0625-.582031 3.507813-2.085937 1.777344-6.007813 4.324219-11.683594 7.523437-16.917969 22.242188 8.558594 39.144532 27.886719 44.316407 51.589844.648437 2.972656 4.042969 4.433594 6.6875 2.929687 33.703125-19.152343 78.335937 4.535157 78.335937 45.824219zm0 0" fill="#2476ed"/></svg>