<svg height="512pt" viewBox="-5 0 512 512" width="512pt" xmlns="http://www.w3.org/2000/svg"><path d="m501.441406 138.757812c0 16.058594-5.242187 29.578126-13 40.292969-13.65625 18.898438-35.117187 29.074219-49.320312 29.074219h-297.191406c-15.011719 0-27.179688-12.167969-27.179688-27.1875 0-13.195312 9.398438-24.195312 21.875-26.667969-5.410156-11.089843-6.976562-22.558593-5.542969-33.34375 4.382813-32.875 36.785157-59.386719 73.824219-49.578125 10.390625-41.007812 47.542969-71.347656 91.785156-71.347656 48.367188 0 88.257813 36.257812 93.984375 83.074219 45.03125-33.527344 110.765625-1.894531 110.765625 55.683593zm0 0" fill="#2476ed"/><path d="m251.84375 458.667969c-3.558594 0-3.878906-1.4375-22.40625-11.746094l3.292969 9.570313c1.382812 4.023437-.75 8.402343-4.769531 9.789062-4.023438 1.375-8.394532-.757812-9.78125-4.78125l-9.046876-26.308594-17.925781-10.351562 1.3125 12.191406c.628907 5.753906-3.878906 10.824219-9.714843 10.824219-5.152344 0-7.121094-3.40625-15.625-9.101563v20.652344l18.261718 20.992188c2.789063 3.210937 2.453125 8.074218-.75 10.867187-3.199218 2.777344-8.0625 2.449219-10.855468-.761719l-6.65625-7.644531v21.445313c0 4.246093-3.4375 7.695312-7.695313 7.695312-4.25 0-7.695313-3.449219-7.695313-7.695312v-21.445313c-5.46875 5.46875-6.957031 10.292969-12.457031 10.292969-6.546875 0-10.136719-7.765625-5.808593-12.753906l18.265624-20.992188v-20.683594l-9.890624 7.222656c-6.863282 5.015626-16.417969-.535156-15.492188-8.957031l1.320312-12.117187-17.882812 10.320312-9.046875 26.308594c-1.097656 3.191406-4.085937 5.203125-7.277344 5.203125-5.273437 0-8.996093-5.214844-7.273437-10.210937l3.292968-9.570313-18.570312 10.710937c-3.664062 2.121094-8.371094.882813-10.515625-2.8125-2.125-3.683593-.863281-8.382812 2.820313-10.515624l18.570312-10.710938-9.949219-1.941406c-4.167969-.808594-6.898437-4.851563-6.074219-9.027344.808594-4.167969 4.839844-6.894531 9.015626-6.085938l27.3125 5.324219 17.925781-10.351562-11.214844-4.953125c-7.765625-3.429688-7.746094-14.480469.011719-17.894532l11.160156-4.914062-17.882812-10.324219-27.3125 5.316407c-4.175782.808593-8.207032-1.910157-9.015626-6.085938-.824218-4.164062 1.90625-8.207031 6.074219-9.015625l9.949219-1.941406-18.570312-10.722657c-3.683594-2.121093-4.945313-6.832031-2.820313-10.503906 2.125-3.683594 6.832031-4.945312 10.515625-2.824218l18.570312 10.722656-3.292968-9.582032c-1.382813-4.023437.75-8.394531 4.769531-9.777343 4.023437-1.386719 8.394531.757812 9.78125 4.769531l9.046875 26.316406 17.925781 10.355469-1.3125-12.191406c-.074219-.695313-.082031-1.375-.023437-2.03125.679687-7.253907 9.257812-11.511719 15.523437-6.90625l9.832031 7.214843v-20.652343l-18.265624-21.003907c-2.777344-3.203124-2.441407-8.066406.761718-10.855468 3.210938-2.789063 8.0625-2.453125 10.855469.757812l6.648437 7.644532v-21.441407c0-4.25 3.445313-7.695312 7.695313-7.695312 4.257813 0 7.695313 3.445312 7.695313 7.695312v21.441407l6.65625-7.644532c2.792968-3.210937 7.644531-3.546875 10.855468-.757812 3.203125 2.789062 3.539063 7.652344.75 10.855468l-18.261718 21.003907v20.683593l9.898437-7.234374c3.128906-2.277344 7.316406-2.503907 10.671875-.5625 3.355469 1.9375 5.242188 5.671874 4.820312 9.53125l-1.320312 12.117187 17.882812-10.324219 9.046876-26.316406c1.386718-4.011719 5.757812-6.15625 9.78125-4.769531 4.019531 1.382812 6.152343 5.753906 4.769531 9.777343l-3.292969 9.582032 18.570312-10.722656c3.683594-2.121094 8.382813-.859376 10.515626 2.824218 2.125 3.671875.863281 8.382813-2.820313 10.503906l-18.570313 10.722657 9.949219 1.941406c4.167969.808594 6.898438 4.851563 6.074219 9.015625-.808594 4.175781-4.851562 6.894531-9.015625 6.085938l-27.3125-5.316407-17.925781 10.355469 11.214844 4.945312c7.765624 3.433594 7.746093 14.484376-.011719 17.902344l-11.160157 4.914063 17.882813 10.320312 27.3125-5.324219c4.175781-.808593 8.207031 1.917969 9.015625 6.085938.328125 1.640625.09375 3.273438-.5625 4.679688-.996094 2.171874-2.984375 3.855468-5.511719 4.347656l-9.949219 1.941406 18.570313 10.710938c6.792969 3.929687 4 14.363281-3.859375 14.363281zm0 0" fill="#97bffd"/><path d="m255.703125 350.976562-18.570313 10.722657 9.949219 1.941406c4.167969.808594 6.898438 4.851563 6.074219 9.015625-.808594 4.175781-4.851562 6.894531-9.015625 6.085938l-27.3125-5.316407-17.925781 10.355469 11.214844 4.945312c7.765624 3.433594 7.746093 14.484376-.011719 17.902344l-11.160157 4.914063 17.882813 10.320312 27.3125-5.324219c4.175781-.808593 8.207031 1.917969 9.015625 6.085938.328125 1.640625.09375 3.273438-.5625 4.679688-4.382812.480468-8.835938.714843-13.339844.714843-49.925781 0-92.976562-29.375-112.820312-71.789062.679687-7.253907 9.257812-11.511719 15.523437-6.90625l9.832031 7.214843v-20.652343l-18.265624-21.003907c-2.777344-3.203124-2.441407-8.066406.761718-10.855468 3.210938-2.789063 8.0625-2.453125 10.855469.757812l6.648437 7.644532v-21.441407c0-4.25 3.445313-7.695312 7.695313-7.695312 4.257813 0 7.695313 3.445312 7.695313 7.695312v21.441407l6.65625-7.644532c2.792968-3.210937 7.644531-3.546875 10.855468-.757812 3.203125 2.789062 3.539063 7.652344.75 10.855468l-18.261718 21.003907v20.683593l9.898437-7.234374c3.128906-2.277344 7.316406-2.503907 10.671875-.5625 3.355469 1.9375 5.242188 5.671874 4.820312 9.53125l-1.320312 12.117187 17.882812-10.324219 9.046876-26.316406c1.386718-4.011719 5.757812-6.15625 9.78125-4.769531 4.019531 1.382812 6.152343 5.753906 4.769531 9.777343l-3.292969 9.582032 18.570312-10.722656c3.683594-2.121094 8.382813-.859376 10.515626 2.824218 2.125 3.671875.863281 8.382813-2.820313 10.503906zm0 0" fill="#b9d3fd"/><path d="m469.90625 402.84375c-3.558594 0-3.875-1.4375-22.40625-11.75l3.292969 9.574219c1.386719 4.023437-.75 8.402343-4.769531 9.789062-4.023438 1.375-8.394532-.761719-9.777344-4.78125l-9.050782-26.308593-17.925781-10.351563 1.3125 12.1875c.628907 5.757813-3.875 10.824219-9.714843 10.824219-5.148438 0-7.121094-3.40625-15.625-9.097656v20.652343l18.261718 20.992188c2.792969 3.210937 2.453125 8.074219-.75 10.863281-3.199218 2.78125-8.0625 2.453125-10.855468-.757812l-6.65625-7.644532v21.445313c0 4.246093-3.4375 7.695312-7.695313 7.695312-4.25 0-7.695313-3.449219-7.695313-7.695312v-21.445313c-5.46875 5.46875-6.957031 10.292969-12.457031 10.292969-6.546875 0-10.136719-7.769531-5.804687-12.753906l18.261718-20.992188v-20.683593l-9.890624 7.222656c-6.863282 5.015625-16.417969-.535156-15.492188-8.957032l1.324219-12.117187-17.886719 10.320313-9.046875 26.308593c-1.097656 3.191407-4.085937 5.199219-7.273437 5.199219-5.277344 0-9-5.210938-7.277344-10.207031l3.292968-9.574219-18.570312 10.710938c-3.660156 2.125-8.371094.882812-10.515625-2.808594-2.125-3.683594-.863281-8.382813 2.820313-10.515625l18.570312-10.714844-9.949219-1.9375c-4.167969-.8125-6.894531-4.851563-6.074219-9.027344.808594-4.167969 4.84375-6.898437 9.019532-6.085937l27.3125 5.324218 17.921875-10.351562-11.214844-4.957031c-7.765625-3.425781-7.746094-14.476563.011719-17.890625l11.164062-4.917969-17.882812-10.320313-27.3125 5.316407c-4.175782.808593-8.210938-1.910157-9.019532-6.085938-.820312-4.164062 1.90625-8.207031 6.074219-9.019531l9.949219-1.9375-18.570312-10.722656c-3.683594-2.125-4.945313-6.832032-2.820313-10.507813 2.125-3.683593 6.832031-4.945312 10.515625-2.820312l18.570312 10.722656-3.292968-9.582031c-1.382813-4.023438.75-8.394532 4.773437-9.777344 4.019531-1.386719 8.390625.757812 9.777344 4.769531l9.046875 26.316407 17.925781 10.351562-1.3125-12.1875c-.070312-.699219-.082031-1.375-.019531-2.03125.675781-7.253906 9.253906-11.511719 15.523438-6.90625l9.828124 7.214844v-20.65625l-18.261718-21c-2.78125-3.203125-2.445313-8.066406.757812-10.855469 3.210938-2.792969 8.0625-2.453125 10.855469.757813l6.648437 7.644531v-21.445313c0-4.246094 3.445313-7.695312 7.695313-7.695312 4.257813 0 7.695313 3.449218 7.695313 7.695312v21.445313l6.65625-7.644531c2.792968-3.210938 7.644531-3.550782 10.855468-.757813 3.203125 2.789063 3.542969 7.652344.75 10.855469l-18.261718 21v20.6875l9.898437-7.234375c3.132813-2.277344 7.316406-2.503907 10.671875-.566407 3.355469 1.941407 5.242188 5.675782 4.824219 9.53125l-1.324219 12.117188 17.882812-10.320312 9.050782-26.316407c1.382812-4.011719 5.753906-6.15625 9.777344-4.769531 4.019531 1.382812 6.15625 5.753906 4.769531 9.777344l-3.292969 9.582031 18.570312-10.722656c3.683594-2.125 8.382813-.863281 10.515626 2.820312 2.125 3.675781.863281 8.382813-2.820313 10.507813l-18.570313 10.722656 9.953126 1.9375c4.164062.8125 6.894531 4.855469 6.074218 9.019531-.8125 4.175781-4.855468 6.894531-9.019531 6.085938l-27.3125-5.316407-17.925781 10.351563 11.214844 4.945313c7.765624 3.4375 7.746093 14.488281-.011719 17.90625l-11.160157 4.914062 17.882813 10.320312 27.3125-5.324218c4.175781-.8125 8.207031 1.917968 9.019531 6.085937.328125 1.640625.089844 3.269531-.566406 4.675781-.996094 2.175782-2.984375 3.859376-5.507812 4.351563l-9.953126 1.9375 18.570313 10.714844c6.792969 3.925781 4 14.363281-3.859375 14.363281zm0 0" fill="#97bffd"/><path d="m473.765625 295.152344-18.570313 10.722656 9.953126 1.9375c4.164062.8125 6.894531 4.855469 6.074218 9.019531-.8125 4.175781-4.855468 6.894531-9.019531 6.085938l-27.3125-5.316407-17.925781 10.351563 11.214844 4.945313c7.765624 3.4375 7.746093 14.488281-.011719 17.90625l-11.160157 4.914062 17.882813 10.320312 27.3125-5.324218c4.175781-.8125 8.207031 1.917968 9.019531 6.085937.328125 1.640625.089844 3.269531-.566406 4.675781-4.378906.484376-8.832031.71875-13.335938.71875-49.925781 0-92.980468-29.375-112.820312-71.789062.675781-7.253906 9.253906-11.511719 15.523438-6.90625l9.828124 7.214844v-20.65625l-18.261718-21c-2.78125-3.203125-2.445313-8.066406.757812-10.855469 3.210938-2.792969 8.0625-2.453125 10.855469.757813l6.648437 7.644531v-21.445313c0-4.246094 3.445313-7.695312 7.695313-7.695312 4.257813 0 7.695313 3.449218 7.695313 7.695312v21.445313l6.65625-7.644531c2.792968-3.210938 7.644531-3.550782 10.855468-.757813 3.203125 2.789063 3.542969 7.652344.75 10.855469l-18.261718 21v20.6875l9.898437-7.234375c3.132813-2.277344 7.316406-2.503907 10.671875-.566407 3.355469 1.941407 5.242188 5.675782 4.824219 9.53125l-1.324219 12.117188 17.882812-10.320312 9.050782-26.316407c1.382812-4.011719 5.753906-6.15625 9.777344-4.769531 4.019531 1.382812 6.15625 5.753906 4.769531 9.777344l-3.292969 9.582031 18.570312-10.722656c3.683594-2.125 8.382813-.863281 10.515626 2.820312 2.125 3.675781.863281 8.382813-2.820313 10.507813zm0 0" fill="#b9d3fd"/><path d="m283.117188 179.050781c-6.363282-25.492187-36.484376-38.371093-59.507813-24.585937-1.632813.984375-3.746094.082031-4.125-1.792969-3.714844-18.550781-16.796875-33.726563-34.09375-40.386719-6.117187-2.359375-12.765625-3.640625-19.710937-3.640625-13.113282 0-25.15625 4.597657-34.597657 12.28125-1.433593 10.785157.132813 22.253907 5.542969 33.34375-12.476562 2.472657-21.875 13.472657-21.875 26.667969 0 15.019531 12.167969 27.1875 27.179688 27.1875h297.191406c14.203125 0 35.664062-10.175781 49.320312-29.074219zm0 0" fill="#0956c6"/><path d="m259.3125 218.664062c0 6.609376-1.523438 12.46875-4.027344 17.535157-7.214844 14.679687-22.5 22.675781-32.09375 22.675781h-206.417968c-8.875 0-16.4375-6.894531-16.7617192-15.761719-.3437498-9.316406 7.1093752-16.988281 16.3593752-16.988281h27.453125c1.578125 0 2.683593-1.535156 2.199219-3.03125-7.859376-24.140625 13.398437-49.25 39.308593-43.996094 1.179688.238282 2.34375-.449218 2.6875-1.601562 6.722657-22.691406 27.742188-39.257813 52.621094-39.257813 6.945313 0 13.59375 1.289063 19.710937 3.648438 17.296876 6.660156 30.378907 21.832031 34.097657 40.382812.375 1.875 2.484375 2.78125 4.125 1.800781 25.875-15.496093 60.738281 2.675782 60.738281 34.59375zm0 0" fill="#2476ed"/><path d="m259.3125 218.664062c0 6.609376-1.523438 12.46875-4.027344 17.535157h-171.933594c-8.875 0-16.4375-6.894531-16.761718-15.765625-.34375-9.3125 7.109375-16.984375 16.359375-16.984375h27.453125c1.574218 0 2.683594-1.535157 2.195312-3.035157-7.851562-24.140624 13.402344-49.246093 39.3125-43.984374 1.175782.238281 2.34375-.445313 2.683594-1.59375 1.359375-4.597657 3.308594-8.941407 5.757812-12.945313 17.296876 6.65625 30.378907 21.828125 34.097657 40.382813.375 1.871093 2.484375 2.78125 4.125 1.796874 25.875-15.496093 60.738281 2.675782 60.738281 34.59375zm0 0" fill="#5596fb"/></svg>